<svg xmlns="http://www.w3.org/2000/svg" fill="none" class="w-24" viewBox="0 0 87 20"><path fill="#F0F0F0" d="M16.139 13.55a6.177 6.177 0 1 1-12.354 0 6.177 6.177 0 0 1 12.354 0Zm-9.099 0a2.922 2.922 0 1 0 5.844 0 2.922 2.922 0 0 0-5.844 0Z" style="--darkreader-inline-fill:#dfdcd7"/><path fill="#F0F0F0" d="M0 5.733a12.303 12.303 0 0 1 19.907-.023L17.11 7.747A8.843 8.843 0 0 0 2.8 7.764L0 5.734ZM82.87 19.688V5.54h3.406v14.148H82.87Zm0-15.734V.312h3.406v3.642H82.87ZM73.114 20c-.989 0-1.847-.164-2.575-.493-.728-.33-1.292-.798-1.69-1.405-.4-.624-.599-1.343-.599-2.158 0-.78.173-1.474.52-2.08.347-.625.884-1.145 1.613-1.561.728-.417 1.647-.711 2.757-.885l4.629-.754v2.6l-3.98.677c-.675.121-1.178.338-1.508.65-.33.312-.494.72-.494 1.223 0 .485.182.875.546 1.17.382.277.85.416 1.405.416.71 0 1.335-.147 1.872-.442.555-.312.98-.737 1.275-1.274a3.46 3.46 0 0 0 .468-1.769v-3.641c0-.607-.243-1.11-.728-1.508-.469-.417-1.093-.625-1.873-.625-.728 0-1.378.2-1.95.599a3.341 3.341 0 0 0-1.223 1.534l-2.783-1.352a4.864 4.864 0 0 1 1.3-1.925 6.647 6.647 0 0 1 2.133-1.3 7.356 7.356 0 0 1 2.653-.468c1.162 0 2.185.216 3.069.65.884.416 1.569 1.005 2.055 1.768.502.746.754 1.621.754 2.627v9.415h-3.225V17.27l.728-.052a5.928 5.928 0 0 1-1.3 1.535 5.87 5.87 0 0 1-1.717.936 6.885 6.885 0 0 1-2.132.312ZM62.297 19.688v-3.641h3.433v3.641h-3.433ZM56.29 19.689V5.541h3.198v3.147l-.26-.468c.33-1.058.84-1.795 1.534-2.211.711-.416 1.56-.624 2.55-.624h.831v3.017h-1.222c-.97 0-1.751.303-2.34.91-.59.59-.885 1.422-.885 2.497v7.88H56.29ZM46.93 20c-1.024 0-1.968-.2-2.836-.598a5.026 5.026 0 0 1-2.028-1.769l.338-.676v2.73h-3.199V0h3.407v8.348l-.52-.702a4.88 4.88 0 0 1 1.977-1.768c.832-.434 1.794-.65 2.886-.65 1.336 0 2.54.329 3.616.988a7.196 7.196 0 0 1 2.548 2.653c.642 1.11.962 2.358.962 3.745 0 1.37-.312 2.618-.936 3.745a7.14 7.14 0 0 1-2.549 2.679c-1.074.641-2.297.962-3.667.962Zm-.39-3.121c.78 0 1.473-.182 2.08-.546a3.684 3.684 0 0 0 1.404-1.509c.347-.641.52-1.378.52-2.21 0-.833-.173-1.56-.52-2.185a3.685 3.685 0 0 0-1.404-1.508c-.607-.382-1.3-.573-2.08-.573-.746 0-1.422.183-2.03.547-.589.364-1.057.875-1.404 1.534-.33.642-.494 1.37-.494 2.185 0 .832.165 1.569.494 2.21a3.93 3.93 0 0 0 1.405 1.509 3.867 3.867 0 0 0 2.028.546ZM26.305 19.688V8.583H23.81V5.54h2.496v-.468c0-1.075.217-1.986.65-2.731A4.432 4.432 0 0 1 28.829.598C29.626.2 30.571 0 31.663 0c.208 0 .433.017.676.052.26.017.477.043.65.078v2.939a2.522 2.522 0 0 0-.494-.052 3.155 3.155 0 0 0-.39-.026c-.763 0-1.352.173-1.768.52-.417.33-.625.85-.625 1.56v.469h4.89v3.043h-4.89v11.105h-3.407Zm7.022 0V5.54h3.434v14.148h-3.434Z" style="--darkreader-inline-fill:#dfdcd7"/></svg>